<svg xmlns="http://www.w3.org/2000/svg" viewBox="0 0 64 64" width="64" height="64">
  <defs>
    <linearGradient id="g" x1="0" y1="0" x2="0" y2="1">
      <stop offset="0%" stop-color="#0070eb"/>
      <stop offset="100%" stop-color="#0058bc"/>
    </linearGradient>
  </defs>
  <!-- Folder tab -->
  <path d="M8 14a4 4 0 0 1 4-4h14l6 6h24a4 4 0 0 1 4 4v30a4 4 0 0 1-4 4H12a4 4 0 0 1-4-4V14z" fill="url(#g)"/>
  <!-- Folder face highlight -->
  <path d="M10 18a2 2 0 0 1 2-2h40a2 2 0 0 1 2 2v26a2 2 0 0 1-2 2H12a2 2 0 0 1-2-2V18z" fill="#1a8aff" opacity="0.3"/>
  <!-- Down arrow -->
  <path d="M32 28v14m-6-6l6 6 6-6" stroke="#fff" stroke-width="3.5" stroke-linecap="round" stroke-linejoin="round" fill="none"/>
  <!-- G letter subtle -->
  <circle cx="32" cy="32" r="10" fill="none" stroke="#fff" stroke-width="1.5" opacity="0.15"/>
</svg>